# xmcd
#
# Track frame offsets: 
#        150
#        13585
#        26742
#        40762
#        54737
#        69627
#        84067
#        97762
#        110887
#        125045
#        139117
#        153750
#        167750
#        180735
#        193942
#        207247
#        221260
#        234397
#        247572
#        261185
#        274622
#        288137
#        301475
#        315525
#        329552
#        344135
#
# Disc length: 4775 seconds
#
# Revision: 1
# Processed by: cddbd v1.5.2PL0 Copyright (c) Steve Scherf et al.
# Submitted via: ExactAudioCopy v1.1
#
DISCID=7412a51a
DTITLE=The Carter Family - In The Shadow Of Clinch Mountain  -  CD7
DYEAR=2000
DGENRE=Country
TTITLE0=Lonesome Valley  (1935)
TTITLE1=God Gave Noah The Rainbow Sign  (1935)
TTITLE2=Single Girl, Married Girl  (1935)
TTITLE3=The Fate Of Dewey Lee  (1935)
TTITLE4=Wildwood Flower  (1935)
TTITLE5=Sea Of Galilee  (1935)
TTITLE6=Don't Forget This Song  (1935)
TTITLE7=My Clinch Mountain Home  (1935)
TTITLE8=The Storms Are On The Ocean  (1935)
TTITLE9=Will You Miss Me When I'm Gone  (1935)
TTITLE10=Broken Hearted Lover  (1935)
TTITLE11=Little Darling, Pal Of Mine  (1935)
TTITLE12=The Homestead On The Farm  (1935)
TTITLE13=Cannon Ball Blues  (1935)
TTITLE14=Meet Me By The Moonlight Alone  (1935)
TTITLE15=On The Rock Where Moses Stood  (1935)
TTITLE16=Lulu Wall  (1935)
TTITLE17=I'm Thinking Tonight Of My Blue Eyes  (1935)
TTITLE18=Worried Man Blues  (1935)
TTITLE19=My Dixie Darling  (1936)
TTITLE20=Give Me Your Love And I'll Give You Mine  (1936)
TTITLE21=Are You Lonesome Tonight  (1936)
TTITLE22=The Last Move For Me  (1936)
TTITLE23=The Wayworn Traveller  (1936)
TTITLE24=Just Another Broken Heart  (1936)
TTITLE25=When Silver Threads Are Gold Again  (1936)
EXTD=Bear Family CD 15865 LK
EXTT0=08-MAY-1935, New York City
EXTT1=08-MAY-1935, New York City
EXTT2=08-MAY-1935, New York City
EXTT3=08-MAY-1935, New York City
EXTT4=08-MAY-1935, New York City
EXTT5=09-MAY-1935, New York City
EXTT6=09-MAY-1935, New York City
EXTT7=09-MAY-1935, New York City
EXTT8=09-MAY-1935, New York City
EXTT9=09-MAY-1935, New York City
EXTT10=09-MAY-1935, New York City
EXTT11=10-MAY-1935, New York City
EXTT12=10-MAY-1935, New York City
EXTT13=10-MAY-1935, New York City
EXTT14=10-MAY-1935, New York City
EXTT15=10-MAY-1935, New York City
EXTT16=10-MAY-1935, New York City
EXTT17=10-MAY-1935, New York City
EXTT18=10-MAY-1935, New York City
EXTT19=08-JUN-1936, New York City
EXTT20=08-JUN-1936, New York City
EXTT21=08-JUN-1936, New York City
EXTT22=08-JUN-1936, New York City
EXTT23=08-JUN-1936, New York City
EXTT24=08-JUN-1936, New York City
EXTT25=08-JUN-1936, New York City
PLAYORDER=
